<?xml version="1.0" encoding="iso-8859-1"?>
<!-- Generator: Adobe Illustrator 18.1.1, SVG Export Plug-In . SVG Version: 6.00 Build 0)  -->
<svg version="1.1" id="Capa_1" xmlns="http://www.w3.org/2000/svg" xmlns:xlink="http://www.w3.org/1999/xlink" x="0px" y="0px"
	 viewBox="0 0 253.462 253.462" style="enable-background:new 0 0 253.462 253.462;" xml:space="preserve">
<g>
	<path style="fill:#334155;" d="M88.289,181.749c-9.013,0-17.557,7.539-23.078,14.664c-8.295,10.71-15.8,18.384-56.441,21.163
		c-8.991,0.615-11.172-4.716-6.065-12.14c9.181-13.347,10.345-31.198,10.345-61.554v-33.053c0-9.013,0.517-23.682,3.106-32.308
		c5.2-17.361,18.944-42.648,54.88-42.648H174.59c9.013,0,23.682-0.359,32.564,1.164c18.531,3.187,46.286,14.479,46.286,53.548
		v22.023c0,0,3.024,69.152-63.409,69.152C146.084,181.749,108.62,181.749,88.289,181.749z"/>
</g>
</svg>
