<?xml version="1.0" encoding="iso-8859-1"?>
<!-- Generator: Adobe Illustrator 26.0.3, SVG Export Plug-In . SVG Version: 6.00 Build 0)  -->
<svg version="1.1" id="katman_1" xmlns="http://www.w3.org/2000/svg" xmlns:xlink="http://www.w3.org/1999/xlink" x="0px" y="0px"
	 viewBox="0 0 15.767 14.984" style="enable-background:new 0 0 15.767 14.984;" xml:space="preserve">
<path style="fill:#1D1D1B;" d="M0,10.965c0.082-0.126,0.201-0.152,0.344-0.152c5.033,0.002,10.066,0.001,15.099,0.001
	c0.248,0,0.323,0.073,0.323,0.318c0,1.175,0,2.35,0,3.525c0,0.257-0.067,0.323-0.331,0.323c-1.339,0.001-2.678,0.002-4.017,0.002
	c-3.684,0-7.368-0.001-11.051,0.001c-0.145,0-0.273-0.017-0.367-0.139C0,13.551,0,12.258,0,10.965z M15.298,11.297
	c-4.95,0-9.889,0-14.824,0c0,0.153,0,0.294,0,0.433c4.947,0,9.882,0,14.824,0C15.298,11.586,15.298,11.45,15.298,11.297z
	 M15.298,14.069c-4.951,0-9.89,0-14.824,0c0,0.154,0,0.294,0,0.433c4.947,0,9.882,0,14.824,0
	C15.298,14.357,15.298,14.22,15.298,14.069z M6.715,12.221c-1.47,0-2.934,0-4.394,0c0,0.461,0,0.91,0,1.354c1.471,0,2.931,0,4.394,0
	C6.715,13.119,6.715,12.674,6.715,12.221z M13.452,12.222c-1.469,0-2.932,0-4.394,0c0,0.461,0,0.909,0,1.353
	c1.473,0,2.932,0,4.394,0C13.452,13.119,13.452,12.674,13.452,12.222z M0.469,13.574c0.463,0,0.916,0,1.374,0
	c0-0.457,0-0.901,0-1.355c-0.459,0-0.913,0-1.374,0C0.469,12.673,0.469,13.118,0.469,13.574z M15.299,13.58c0-0.463,0-0.908,0-1.36
	c-0.461,0-0.915,0-1.37,0c0,0.459,0,0.908,0,1.36C14.389,13.58,14.838,13.58,15.299,13.58z M7.205,13.577c0.463,0,0.907,0,1.352,0
	c0-0.457,0-0.905,0-1.357c-0.457,0-0.901,0-1.352,0C7.205,12.675,7.205,13.119,7.205,13.577z"/>
<path style="fill:#1D1D1B;" d="M0,0.156C0.066,0.045,0.159,0,0.293,0c1.446,0.004,2.892,0.002,4.338,0.002
	c0.248,0,0.322,0.074,0.322,0.318c0.001,1.441,0.001,2.882,0.001,4.323c0,0.227-0.088,0.313-0.319,0.313
	c-1.436,0-2.872-0.002-4.308,0.001c-0.139,0-0.25-0.034-0.328-0.152C0,3.256,0,1.706,0,0.156z M0.468,4.471c1.344,0,2.674,0,4.007,0
	c0-1.34,0-2.667,0-3.999c-0.436,0-0.864,0-1.304,0c0,0.064,0,0.119,0,0.175c0,0.58,0,1.159,0,1.739c0,0.248-0.074,0.323-0.317,0.324
	c-0.251,0.001-0.503,0-0.754,0C1.85,2.709,1.78,2.64,1.78,2.39c0-0.585,0.001-1.169,0.001-1.754c0-0.054,0-0.108,0-0.163
	c-0.451,0-0.879,0-1.314,0C0.468,1.808,0.468,3.135,0.468,4.471z M2.699,0.476c-0.159,0-0.303,0-0.44,0c0,0.594,0,1.175,0,1.756
	c0.153,0,0.294,0,0.44,0C2.699,1.642,2.699,1.065,2.699,0.476z"/>
<path style="fill:#1D1D1B;" d="M0,5.545c0.086-0.111,0.2-0.138,0.336-0.138c1.421,0.002,2.843,0,4.264,0
	c0.285,0,0.353,0.069,0.353,0.355c0,1.421,0,2.843,0,4.264c0,0.266-0.07,0.336-0.338,0.336c-1.426,0-2.853-0.001-4.279,0.002
	c-0.136,0-0.251-0.027-0.336-0.138C0,8.665,0,7.105,0,5.545z M3.17,5.887c0,0.066,0,0.121,0,0.177c0,0.59,0.001,1.18,0,1.77
	c0,0.182-0.079,0.282-0.248,0.287c-0.302,0.008-0.605,0.008-0.908,0C1.862,8.116,1.783,8.024,1.782,7.868
	C1.779,7.437,1.78,7.006,1.784,6.576c0.001-0.149,0.091-0.237,0.225-0.239c0.135-0.002,0.234,0.095,0.236,0.247
	c0.004,0.297,0.002,0.595,0.003,0.892c0,0.054,0,0.108,0,0.159c0.165,0,0.305,0,0.447,0c0-0.59,0-1.167,0-1.748
	c-0.747,0-1.483,0-2.222,0c0,1.338,0,2.668,0,3.995c1.339,0,2.666,0,4.001,0c0-1.335,0-2.661,0-3.995
	C4.042,5.887,3.618,5.887,3.17,5.887z"/>
<path style="fill:#1D1D1B;" d="M7.884,4.955c-0.723,0-1.446,0.001-2.169,0c-0.223,0-0.308-0.081-0.309-0.306
	c-0.001-1.451,0-2.903,0.002-4.354c0-0.22,0.078-0.293,0.299-0.293c1.451-0.001,2.903-0.001,4.354-0.001
	c0.219,0,0.298,0.075,0.298,0.294c0.001,1.457,0.002,2.913,0,4.37c0,0.213-0.085,0.29-0.306,0.29
	C9.33,4.956,8.607,4.955,7.884,4.955z M8.583,0.471c0,0.063,0,0.118,0,0.173c0,0.564,0,1.129,0,1.693
	c0,0.31-0.062,0.373-0.365,0.373c-0.236,0-0.472,0-0.708,0c-0.252,0-0.327-0.078-0.327-0.332c0.001-0.585,0.001-1.17,0-1.754
	c0-0.049-0.005-0.099-0.009-0.153c-0.435,0-0.858,0-1.288,0c0,1.338,0,2.668,0,4.005c1.336,0,2.662,0,3.992,0c0-1.34,0-2.67,0-4.004
	C9.446,0.471,9.023,0.471,8.583,0.471z M8.096,2.234c0-0.592,0-1.176,0-1.763c-0.149,0-0.285,0-0.426,0c0,0.59,0,1.171,0,1.763
	C7.816,2.234,7.951,2.234,8.096,2.234z"/>
<path style="fill:#1D1D1B;" d="M7.899,5.407c0.703,0,1.406,0,2.109,0c0.291,0,0.352,0.061,0.352,0.354c0,1.416,0,2.833,0,4.249
	c0,0.292-0.06,0.352-0.352,0.352c-1.416,0-2.833,0-4.249,0c-0.292,0-0.354-0.061-0.354-0.352c0-1.421,0.001-2.843,0.002-4.264
	c0-0.273,0.063-0.336,0.337-0.336c0.718-0.001,1.437,0,2.155,0C7.899,5.408,7.899,5.407,7.899,5.407z M5.888,5.888
	c0,1.34,0,2.665,0,3.994c1.336,0,2.662,0,3.994,0c0-1.335,0-2.661,0-3.991c-0.435,0-0.862,0-1.298,0c0,0.068,0,0.124,0,0.18
	c0,0.569,0,1.139,0,1.708c0,0.27-0.076,0.344-0.351,0.345C7.991,8.125,7.75,8.125,7.509,8.125c-0.239,0-0.324-0.084-0.324-0.324
	c-0.001-0.58,0-1.159,0-1.739c0-0.055,0-0.11,0-0.174C6.745,5.888,6.322,5.888,5.888,5.888z M8.097,7.639c0-0.588,0-1.167,0-1.747
	c-0.151,0-0.291,0-0.426,0c0,0.589,0,1.165,0,1.747C7.818,7.639,7.954,7.639,8.097,7.639z"/>
<path style="fill:#1D1D1B;" d="M15.766,7.894c0,0.723,0,1.446,0,2.169c0,0.22-0.074,0.298-0.294,0.298
	c-1.451,0.001-2.903,0.001-4.354,0c-0.226,0-0.306-0.083-0.306-0.307c0-1.446,0-2.892,0.002-4.339c0-0.224,0.081-0.306,0.307-0.306
	c1.446-0.002,2.892-0.002,4.339-0.001c0.239,0,0.307,0.074,0.307,0.316C15.766,6.447,15.766,7.17,15.766,7.894z M15.3,5.888
	c-0.442,0-0.87,0-1.314,0c0,0.064,0,0.119,0,0.174c0,0.585,0.001,1.17,0,1.755c0,0.226-0.079,0.303-0.306,0.306
	c-0.257,0.003-0.513,0.004-0.77,0.002c-0.231-0.002-0.312-0.085-0.312-0.318c-0.001-0.585,0-1.17,0-1.755c0-0.054,0-0.108,0-0.165
	c-0.446,0-0.87,0-1.304,0c0,1.334,0,2.66,0,3.995c1.34,0,2.67,0,4.006,0C15.3,8.549,15.3,7.227,15.3,5.888z M13.073,5.885
	c0,0.594,0,1.171,0,1.751c0.152,0,0.292,0,0.435,0c0-0.591,0-1.171,0-1.751C13.358,5.885,13.221,5.885,13.073,5.885z"/>
<path style="fill:#1D1D1B;" d="M13.292,0.002c0.723,0,1.446,0,2.17,0c0.232,0,0.304,0.071,0.305,0.3c0,1.452,0,2.903,0,4.355
	c0,0.216-0.08,0.298-0.296,0.298c-1.452,0.001-2.903,0.001-4.355,0c-0.213,0-0.303-0.088-0.303-0.297c0-1.457,0-2.913,0.002-4.37
	c0-0.205,0.085-0.285,0.293-0.285C11.835,0.002,12.564,0.002,13.292,0.002C13.292,0.002,13.292,0.002,13.292,0.002z M13.992,0.468
	c-0.003,0.044-0.006,0.074-0.006,0.104c0,0.616,0.001,1.232-0.001,1.847c-0.001,0.21-0.08,0.289-0.287,0.29
	c-0.272,0.002-0.544,0.002-0.816,0.001c-0.198-0.001-0.283-0.084-0.285-0.278c-0.002-0.169-0.001-0.339,0-0.508
	c0-0.257-0.004-0.513,0.002-0.77c0.003-0.14,0.107-0.231,0.238-0.228c0.125,0.003,0.213,0.091,0.221,0.227
	c0.005,0.077,0.002,0.154,0.002,0.231c0,0.28,0,0.561,0,0.849c0.163,0,0.303,0,0.452,0c0-0.591,0-1.173,0-1.761
	c-0.743,0-1.479,0-2.215,0c0,1.34,0,2.671,0,4.003c1.341,0,2.668,0,3.997,0c0-1.341,0-2.672,0-4.008
	C14.859,0.468,14.434,0.468,13.992,0.468z"/>
</svg>
