<svg width="15.767" height="4" xmlns="http://www.w3.org/2000/svg" xml:space="preserve" version="1.1">

 <g>
  <title>Layer 1</title>
  <path id="svg_1" fill="#334155" d="m0,0.152c0.082,-0.126 0.201,-0.152 0.344,-0.152c5.033,0.002 10.066,0.001 15.099,0.001c0.248,0 0.323,0.073 0.323,0.318c0,1.175 0,2.35 0,3.525c0,0.257 -0.067,0.323 -0.331,0.323c-1.339,0.001 -2.678,0.002 -4.017,0.002c-3.684,0 -7.368,-0.001 -11.051,0.001c-0.145,0 -0.273,-0.017 -0.367,-0.139c0,-1.293 0,-2.586 0,-3.879zm15.298,0.332c-4.95,0 -9.889,0 -14.824,0c0,0.153 0,0.294 0,0.433c4.947,0 9.882,0 14.824,0c0,-0.144 0,-0.28 0,-0.433zm0,2.772c-4.951,0 -9.89,0 -14.824,0c0,0.154 0,0.294 0,0.433c4.947,0 9.882,0 14.824,0c0,-0.145 0,-0.282 0,-0.433zm-8.583,-1.848c-1.47,0 -2.934,0 -4.394,0c0,0.461 0,0.91 0,1.354c1.471,0 2.931,0 4.394,0c0,-0.456 0,-0.901 0,-1.354zm6.737,0.001c-1.469,0 -2.932,0 -4.394,0c0,0.461 0,0.909 0,1.353c1.473,0 2.932,0 4.394,0c0,-0.456 0,-0.901 0,-1.353zm-12.983,1.352c0.463,0 0.916,0 1.374,0c0,-0.457 0,-0.901 0,-1.355c-0.459,0 -0.913,0 -1.374,0c0,0.454 0,0.899 0,1.355zm14.83,0.006c0,-0.463 0,-0.908 0,-1.36c-0.461,0 -0.915,0 -1.37,0c0,0.459 0,0.908 0,1.36c0.46,0 0.909,0 1.37,0zm-8.094,-0.003c0.463,0 0.907,0 1.352,0c0,-0.457 0,-0.905 0,-1.357c-0.457,0 -0.901,0 -1.352,0c0,0.455 0,0.899 0,1.357z"/>
 </g>
</svg>